<svg width="1482" height="648" viewBox="0 0 1482 648" fill="none" xmlns="http://www.w3.org/2000/svg">
<path d="M739.5 23.5L741 28.5L741.5 26.5L743.5 21.5L747.5 15L752 10L758.5 5.5L764 3L770 1.5L775 1H776H1481V647H777H774.082L770 646.5L765.5 645.5L760.5 643.5L757 641.5L754 639.5L749.5 635.5L747.5 633L746.051 631L744.5 628.5L743.5 626.5L742 623L741 619.477L740.5 621.5L740 623L739 625.5L737.5 628.5L735.919 631L734.5 633L731.5 636.5L728.65 639L726 641L725 641.625L723.5 642.5L721.5 643.5L718 645L712.5 646.5L707 647H706.601H1V1H696.5H705H708L712 1.5L714.5 2L718 3L721.5 4.5L726 7L728 8.5L730.5 10.5L732.5 12.5L736 17L738 20.5L739.5 23.5Z" stroke="black"/>
</svg>
