<svg width="12" height="12" viewBox="0 0 12 12" fill="none" xmlns="http://www.w3.org/2000/svg">
<path fill-rule="evenodd" clip-rule="evenodd" d="M10.9734 2.84835C10.8368 1.72764 10.23 1.01597 9.16914 0.787914C8.72946 0.693074 8.2688 0.666286 7.81683 0.661219C6.45945 0.645291 5.10279 0.651083 3.74614 0.659047C3.39685 0.660495 3.04684 0.688006 2.69972 0.728548C1.99969 0.811082 1.40091 1.08909 0.99088 1.69144C0.682812 2.1432 0.569276 2.65939 0.550473 3.19441C0.517931 4.10517 0.507807 5.01666 0.488281 5.92742C0.495513 5.92742 0.502745 5.92814 0.509253 5.92814C0.509253 6.4885 0.499852 7.04958 0.512146 7.60922C0.52227 8.0827 0.533841 8.55907 0.588078 9.02821C0.717524 10.1496 1.3286 10.8606 2.3902 11.0894C2.83061 11.1842 3.29127 11.211 3.74324 11.2168C5.09339 11.232 6.44426 11.2269 7.79585 11.2182C8.1502 11.2168 8.50745 11.1922 8.86108 11.1487C9.97764 11.0126 10.6863 10.4038 10.9141 9.33879C11.0089 8.89789 11.0356 8.43527 11.0407 7.98206C11.0566 6.62678 11.0515 5.27222 11.0436 3.91694C11.04 3.56074 11.0161 3.20237 10.9734 2.84835ZM5.7775 9.25988C3.96381 9.25843 2.4712 7.76053 2.46975 5.94117C2.4683 4.12182 3.95875 2.62247 5.77316 2.61813C7.58686 2.61451 9.08309 4.10734 9.08959 5.92742C9.0961 7.75401 7.59771 9.26133 5.7775 9.25988ZM9.22193 3.26753C8.80611 3.27115 8.44598 2.91496 8.44236 2.49505C8.43802 2.07297 8.78876 1.71967 9.21181 1.71822C9.63992 1.71605 9.98415 2.05704 9.98632 2.48564C9.98921 2.91206 9.64426 3.26391 9.22193 3.26753ZM5.80281 3.78952C4.61393 3.77721 3.6514 4.72128 3.63694 5.91149C3.6232 7.1046 4.56114 8.07184 5.74713 8.08849C6.94324 8.10441 7.91228 7.15601 7.92241 5.95783C7.93253 4.76544 6.9888 3.8011 5.80281 3.78952Z" fill="white"/>
<path d="M10.4564 2.7663C10.4642 2.81255 10.4712 2.86007 10.4771 2.90888C10.5176 3.24465 10.5401 3.58413 10.5436 3.92095C10.5515 5.27558 10.5566 6.62601 10.5407 7.97619L10.5407 7.97648C10.5358 8.41705 10.5097 8.84103 10.4253 9.23376L10.4252 9.23421C10.3301 9.67891 10.1431 9.99555 9.89147 10.216C9.63771 10.4382 9.2825 10.5937 8.80057 10.6524L8.80011 10.6525C8.46406 10.6937 8.12657 10.7169 7.79381 10.7182L7.79264 10.7182C6.44167 10.7269 5.09456 10.732 3.74915 10.7168C3.30954 10.7112 2.88767 10.685 2.49554 10.6006L10.4564 2.7663ZM10.4564 2.7663C10.3313 3.33189 9.8297 3.76231 9.22629 3.76751L10.4564 2.7663ZM9.21181 1.71822L9.21042 1.31283C9.57648 1.41528 9.84591 1.58767 10.0406 1.81151C10.1917 1.98521 10.312 2.20636 10.3921 2.48289L10.4863 2.48225C10.4863 2.48229 10.4863 2.48232 10.4863 2.48236C10.4863 2.48261 10.4863 2.48286 10.4863 2.48311L10.3923 2.48358L9.20975 1.31264L9.21181 1.71822ZM9.21181 1.71822C8.78876 1.71967 8.43802 2.07297 8.44236 2.49505M9.21181 1.71822L8.44236 2.49505M8.44236 2.49505L7.94238 2.49935C7.94238 2.49958 7.94239 2.4998 7.94239 2.50003M8.44236 2.49505L7.94239 2.50019C7.94239 2.50014 7.94239 2.50008 7.94239 2.50003M8.93111 1.25045C8.57764 1.18666 8.20127 1.16556 7.81122 1.16119L7.81096 1.16118C6.45842 1.14531 5.10568 1.15107 3.74907 1.15904L3.74821 1.15904C3.42331 1.16039 3.09301 1.18602 2.75798 1.22514C2.16208 1.29545 1.71253 1.51987 1.4042 1.9728L1.40397 1.97314C1.16671 2.32107 1.06694 2.73452 1.05016 3.21197L1.05015 3.21226C1.02739 3.84925 1.01572 4.48418 1.00396 5.12399C1.0021 5.22525 1.00024 5.32662 0.99833 5.42814H1.00925V5.92814C1.00925 6.10314 1.00838 6.27569 1.00751 6.44674C1.00553 6.83461 1.0036 7.21477 1.01203 7.59823L1.01203 7.59853C1.02221 8.07461 1.03362 8.52837 1.08477 8.97079L1.08478 8.97087C1.14059 9.45435 1.29513 9.81072 1.5167 10.0652C1.73652 10.3177 2.05272 10.5051 2.49546 10.6006L8.93111 1.25045ZM8.93111 1.25045C8.36484 1.38126 7.93624 1.89442 7.94239 2.50003M8.93111 1.25045L9.22622 3.76751C9.10443 3.76857 8.98611 3.7516 8.87374 3.71917C9.32123 4.34299 9.58666 5.1054 9.58959 5.92564C9.59708 8.02766 7.87586 9.76155 5.7771 9.75988C3.68599 9.75821 1.97142 8.03516 1.96975 5.94157C1.96809 3.84769 3.68043 2.12313 5.77197 2.11813L5.77217 2.11813C6.59731 2.11648 7.36449 2.38288 7.99142 2.83473C7.9605 2.72771 7.94344 2.61541 7.94239 2.50003M5.79793 4.28949L5.79764 4.28949C4.88575 4.28005 4.1482 5.00184 4.1369 5.91725C4.1369 5.91728 4.1369 5.91731 4.1369 5.91734M5.79793 4.28949L3.63694 5.91149L4.1369 5.91757C4.1369 5.91749 4.1369 5.91742 4.1369 5.91734M5.79793 4.28949C6.7061 4.29836 7.43022 5.03513 7.42243 5.95358L7.42243 5.9536C7.41464 6.87495 6.67265 7.60057 5.75415 7.58854M5.79793 4.28949L5.75415 7.58854M4.1369 5.91734C4.12636 6.83736 4.84639 7.57579 5.75415 7.58854M4.1369 5.91734L5.75415 7.58854M7.79585 11.2182C8.1502 11.2168 8.50745 11.1922 8.86108 11.1487L7.79585 11.2182Z" stroke="white" stroke-opacity="0.08"/>
</svg>
